<?xml version="1.0" encoding="UTF-8"?>
<!DOCTYPE svg PUBLIC "-//W3C//DTD SVG 1.1//EN" "http://www.w3.org/Graphics/SVG/1.1/DTD/svg11.dtd">
<svg xmlns="http://www.w3.org/2000/svg" version="1.1" width="1046px" height="550px" style="shape-rendering:geometricPrecision; text-rendering:geometricPrecision; image-rendering:optimizeQuality; fill-rule:evenodd; clip-rule:evenodd">
<g><path style="opacity:0.13" fill="#030000" d="M 1045.5,108.5 C 1045.5,131.833 1045.5,155.167 1045.5,178.5C 1042.04,195.307 1038.87,212.307 1036,229.5C 1034.67,235.822 1032.01,241.489 1028,246.5C 1013.17,262.667 998.333,278.833 983.5,295C 994.438,296.58 1005.44,298.247 1016.5,300C 1021.21,303.412 1023.54,308.079 1023.5,314C 1015.6,361.877 1007.44,409.71 999,457.5C 998.035,467.634 992.535,473.134 982.5,474C 816.167,474.333 649.833,474.667 483.5,475C 446.44,483.694 410.773,479.861 376.5,463.5C 373.893,464.137 371.56,465.304 369.5,467C 337.347,491.909 305.013,516.576 272.5,541C 268.739,543.765 264.739,546.098 260.5,548C 254.007,549.38 248.007,548.38 242.5,545C 220.5,523.667 198.5,502.333 176.5,481C 78.055,471.56 20.2217,418.06 3,320.5C -5.50085,250.673 7.16582,185.007 41,123.5C 90.8815,43.3121 163.048,8.14542 257.5,18C 313,26.9761 354.5,55.8094 382,104.5C 382.75,105.126 383.584,105.626 384.5,106C 460.167,106.667 535.833,106.667 611.5,106C 613.354,56.4918 637.688,23.8251 684.5,8C 727.465,-2.30747 763.965,8.52586 794,40.5C 808.474,59.8816 815.641,81.7149 815.5,106C 889.833,106.333 964.167,106.667 1038.5,107C 1040.87,107.44 1043.2,107.94 1045.5,108.5 Z"/></g>
<g><path style="opacity:1" fill="#f34236" d="M 947.5,300.5 C 946.957,300.56 946.624,300.893 946.5,301.5C 960.15,302.499 973.817,302.833 987.5,302.5C 993.167,302.5 998.833,302.5 1004.5,302.5C 996.298,353.249 987.631,403.915 978.5,454.5C 809.501,455.333 640.501,455.833 471.5,456C 434.73,465.426 400.23,460.26 368,440.5C 327.702,470.627 287.536,500.96 247.5,531.5C 222.681,507.848 198.015,484.015 173.5,460C 91.1361,457.079 37.9694,416.245 14,337.5C -3.42651,260.483 7.57349,187.816 47,119.5C 99.6537,39.6045 173.154,8.77121 267.5,27C 313.348,40.5927 347.014,68.7593 368.5,111.5C 452.164,112.5 535.831,112.833 619.5,112.5C 613.384,67.5582 630.718,35.3916 671.5,16C 704.27,4.1562 734.937,8.1562 763.5,28C 789.851,50.2113 799.851,78.378 793.5,112.5C 874.169,112.167 954.836,112.5 1035.5,113.5C 1029.01,150.817 1022.51,188.151 1016,225.5C 992.96,250.37 970.127,275.37 947.5,300.5 Z"/></g>
<g><path style="opacity:1" fill="#fffdfd" d="M 694.5,56.5 C 713.153,52.9973 728.987,57.9973 742,71.5C 749.061,83.1365 750.394,95.4698 746,108.5C 737.309,124.689 723.642,132.689 705,132.5C 677.144,130.314 663.81,115.314 665,87.5C 669.231,71.7704 679.064,61.437 694.5,56.5 Z"/></g>
<g><path style="opacity:1" fill="#fffefe" d="M 203.5,67.5 C 270.884,62.5682 315.051,91.9015 336,155.5C 346.914,206.96 342.914,257.294 324,306.5C 310.062,339.271 288.562,365.937 259.5,386.5C 274.167,401.167 288.833,415.833 303.5,430.5C 286.09,443.955 268.59,457.288 251,470.5C 231.167,451.333 211.333,432.167 191.5,413C 113.646,417.484 67.8124,381.318 54,304.5C 47.0479,246.257 58.3812,191.924 88,141.5C 115.163,99.1754 153.663,74.5088 203.5,67.5 Z"/></g>
<g><path style="opacity:1" fill="#f44236" d="M 202.5,131.5 C 239.188,128.016 259.021,144.683 262,181.5C 263.955,220.859 258.622,259.193 246,296.5C 239.938,312.13 230.771,325.63 218.5,337C 200.881,350.12 181.548,353.453 160.5,347C 150.667,342.5 143.5,335.333 139,325.5C 132.4,306.698 130.067,287.365 132,267.5C 133.724,239.08 139.057,211.413 148,184.5C 153.893,169.864 162.393,157.031 173.5,146C 182.169,138.999 191.836,134.165 202.5,131.5 Z"/></g>
<g><path style="opacity:1" fill="#fffefe" d="M 569.5,408.5 C 546.167,408.5 522.833,408.5 499.5,408.5C 499.5,407.5 499.5,406.5 499.5,405.5C 500.837,398.116 502.004,390.783 503,383.5C 475.886,412.792 443.386,420.959 405.5,408C 385.222,397.985 372.722,381.819 368,359.5C 365.657,347.271 364.991,334.937 366,322.5C 375.493,267.878 384.659,213.211 393.5,158.5C 418.833,158.5 444.167,158.5 469.5,158.5C 460.885,211.524 452.051,264.524 443,317.5C 437.561,343.881 448.061,355.714 474.5,353C 486.534,350.4 496.701,344.567 505,335.5C 515.271,276.766 525.771,218.099 536.5,159.5C 562.16,158.334 587.827,158.167 613.5,159C 598.765,242.248 584.098,325.414 569.5,408.5 Z"/></g>
<g><path style="opacity:1" fill="#fffdfd" d="M 657.5,158.5 C 683.175,158.167 708.842,158.5 734.5,159.5C 719.569,242.418 705.069,325.418 691,408.5C 665.574,409.495 640.074,409.828 614.5,409.5C 628.552,325.808 642.885,242.141 657.5,158.5 Z"/></g>
<g><path style="opacity:1" fill="#fffdfd" d="M 842.5,346.5 C 841.711,346.783 841.044,347.283 840.5,348C 859.497,348.5 878.497,348.667 897.5,348.5C 914.833,348.5 932.167,348.5 949.5,348.5C 946.273,368.862 942.94,389.196 939.5,409.5C 870.5,409.5 801.5,409.5 732.5,409.5C 734.794,393.405 737.627,377.405 741,361.5C 784.616,314.428 828.116,267.262 871.5,220C 837.835,219.5 804.168,219.333 770.5,219.5C 773.46,199.113 776.793,178.78 780.5,158.5C 847.17,158.167 913.837,158.5 980.5,159.5C 978.002,173.821 975.502,188.155 973,202.5C 972.333,203.833 971.667,205.167 971,206.5C 927.592,252.737 884.759,299.404 842.5,346.5 Z"/></g>
<g><path style="opacity:0.388" fill="#3d100d" d="M 947.5,300.5 C 960.833,301.167 974.167,301.833 987.5,302.5C 973.817,302.833 960.15,302.499 946.5,301.5C 946.624,300.893 946.957,300.56 947.5,300.5 Z"/></g>
<g><path style="opacity:1" fill="#f77168" d="M 842.5,346.5 C 860.833,347.167 879.167,347.833 897.5,348.5C 878.497,348.667 859.497,348.5 840.5,348C 841.044,347.283 841.711,346.783 842.5,346.5 Z"/></g>
<g><path style="opacity:1" fill="#f9a099" d="M 499.5,405.5 C 499.5,406.5 499.5,407.5 499.5,408.5C 522.833,408.5 546.167,408.5 569.5,408.5C 546.006,409.498 522.339,409.831 498.5,409.5C 498.232,407.901 498.566,406.568 499.5,405.5 Z"/></g>
</svg>
